<svg width="78" height="51" viewBox="0 0 78 51" fill="none" xmlns="http://www.w3.org/2000/svg">
<path d="M64 15V5C64 2.25 61.75 0 59 0H19C16.25 0 14.025 2.25 14.025 5V15C16.775 15 19 17.25 19 20C19 22.75 16.775 25 14 25V35C14 37.75 16.25 40 19 40H59C61.75 40 64 37.75 64 35V25C61.25 25 59 22.75 59 20C59 17.25 61.25 15 64 15ZM59 11.35C56.025 13.075 54 16.325 54 20C54 23.675 56.025 26.925 59 28.65V35H19V28.65C21.975 26.925 24 23.675 24 20C24 16.3 22 13.075 19.025 11.35L19 5H59V11.35ZM31.675 30L39 25.3L46.325 30L44.1 21.6L50.825 16.1L42.15 15.575L39 7.5L35.825 15.55L27.15 16.075L33.875 21.575L31.675 30Z" fill="white"/>
<circle cx="62.0003" cy="34.9994" r="13.3333" fill="#8155FE"/>
<path d="M62.0003 21.666C54.667 21.666 48.667 27.666 48.667 34.9993C48.667 42.3327 54.667 48.3327 62.0003 48.3327C69.3337 48.3327 75.3337 42.3327 75.3337 34.9993C75.3337 27.666 69.3337 21.666 62.0003 21.666ZM59.3337 41.666L52.667 34.9993L54.547 33.1193L59.3337 37.8927L69.4537 27.7727L71.3337 29.666L59.3337 41.666Z" fill="white"/>
</svg>
