<svg width="40" height="40" viewBox="0 0 40 40" fill="none" xmlns="http://www.w3.org/2000/svg">
<path d="M35 7.5C35 6.83696 34.7366 6.20107 34.2678 5.73223C33.7989 5.26339 33.163 5 32.5 5H27.5V2.5H25V5H15V2.5H12.5V5H7.5C6.83696 5 6.20107 5.26339 5.73223 5.73223C5.26339 6.20107 5 6.83696 5 7.5V32.5C5 33.163 5.26339 33.7989 5.73223 34.2678C6.20107 34.7366 6.83696 35 7.5 35H12.5V32.5H7.5V7.5H12.5V10H15V7.5H25V10H27.5V7.5H32.5V15H35V7.5Z" fill="white"/>
<path d="M26.25 18.75L29.4362 24.9225L36.25 25.9113L31.25 30.7162L32.5 37.5L26.25 34.2975L20 37.5L21.25 30.7162L16.25 25.9113L23.25 24.9225L26.25 18.75Z" fill="#8741FA"/>
</svg>
