<svg width="40" height="40" viewBox="0 0 40 40" fill="none" xmlns="http://www.w3.org/2000/svg">
<path d="M26.0419 6.66634C26.0419 7.5504 25.6907 8.39824 25.0656 9.02336C24.4405 9.64849 23.5926 9.99967 22.7086 9.99967C21.8245 9.99967 20.9767 9.64849 20.3515 9.02336C19.7264 8.39824 19.3752 7.5504 19.3752 6.66634C19.3752 5.78229 19.7264 4.93444 20.3515 4.30932C20.9767 3.6842 21.8245 3.33301 22.7086 3.33301C23.5926 3.33301 24.4405 3.6842 25.0656 4.30932C25.6907 4.93444 26.0419 5.78229 26.0419 6.66634ZM21.4111 23.6638L25.7386 27.9338C25.9045 28.0976 26.0342 28.2943 26.1194 28.5113L28.4269 34.3905C28.5885 34.802 28.5799 35.2609 28.4032 35.6661C28.2264 36.0714 27.8959 36.3898 27.4844 36.5513C27.0729 36.7129 26.614 36.7044 26.2088 36.5276C25.8035 36.3509 25.4851 36.0204 25.3236 35.6088L23.1452 30.058L15.7052 22.7163C15.5254 22.5391 15.3883 22.3232 15.3041 22.0852C15.22 21.8471 15.191 21.5931 15.2194 21.3422L15.8152 16.0755C14.3786 17.5038 13.2702 19.5113 12.4211 22.1722C12.3576 22.3843 12.2524 22.5816 12.1118 22.7527C11.9712 22.9237 11.798 23.065 11.6021 23.1683C11.4063 23.2716 11.1919 23.3349 10.9713 23.3544C10.7508 23.374 10.5286 23.3493 10.3176 23.282C10.1067 23.2147 9.91131 23.106 9.74285 22.9623C9.57439 22.8187 9.43624 22.6429 9.33648 22.4452C9.23672 22.2475 9.17734 22.032 9.16182 21.8111C9.14629 21.5903 9.17493 21.3685 9.24606 21.1588C10.8044 16.2755 13.3919 12.6205 17.7336 10.9447L17.7527 10.9372C18.8586 10.5263 20.0086 10.5597 21.0336 11.0888C22.0177 11.598 22.7186 12.4772 23.1777 13.4622C23.3711 13.8772 23.5494 14.2647 23.7177 14.6288C24.1244 15.5105 24.4661 16.2538 24.7952 16.9055C25.2561 17.8222 25.6269 18.4305 25.9936 18.8563C26.3336 19.2522 26.6711 19.4955 27.1019 19.6638C27.5652 19.8447 28.2144 19.9697 29.2169 19.9997C29.4371 20.0041 29.6543 20.0521 29.8558 20.141C30.0574 20.2298 30.2393 20.3577 30.3911 20.5173C30.543 20.6769 30.6616 20.865 30.7403 21.0708C30.819 21.2765 30.8561 21.4958 30.8494 21.716C30.8428 21.9362 30.7927 22.1529 30.7018 22.3535C30.6109 22.5542 30.4812 22.7348 30.3201 22.885C30.159 23.0352 29.9697 23.152 29.7632 23.2286C29.5566 23.3052 29.337 23.3401 29.1169 23.3313C27.9127 23.2955 26.8436 23.1413 25.8894 22.7688C24.9036 22.3838 24.1261 21.798 23.4644 21.0272C23.0477 20.5422 22.6811 19.988 22.3394 19.3855L21.4111 23.6638Z" fill="white"/>
<path d="M15.2195 25.1826L17.982 27.8326L16.7104 32.1218C16.612 32.4536 16.4128 32.7466 16.1404 32.9601L11.862 36.3126C11.6897 36.4476 11.4924 36.5473 11.2815 36.6061C11.0706 36.6648 10.8502 36.6815 10.6329 36.655C10.4155 36.6286 10.2056 36.5596 10.0149 36.4521C9.82421 36.3445 9.65659 36.2004 9.52161 36.028C9.38662 35.8557 9.2869 35.6584 9.22815 35.4475C9.16939 35.2366 9.15276 35.0162 9.17918 34.7989C9.20561 34.5816 9.27458 34.3716 9.38216 34.1809C9.48975 33.9902 9.63383 33.8226 9.80619 33.6876L13.6662 30.6643L14.8287 26.7393L15.2195 25.1826Z" fill="white"/>
<path d="M34 0V40H46V0H34Z" fill="#8741FA" mask="url(#path-1-inside-1_93_155)"/>
<rect x="36.6665" y="15.833" width="1.66667" height="5.83333" fill="white"/>
</svg>
