<svg width="21" height="16" viewBox="0 0 21 16" fill="none" xmlns="http://www.w3.org/2000/svg">
<path d="M10.9168 10.6169V10.4554M10.9168 8.11449V7.95296M10.9168 5.62272V5.46119M4.84322 0.883179H8.50012C8.53321 2.0624 9.74624 3.00818 10.9335 3.00818C12.1207 3.00818 13.3411 2.0624 13.3742 0.883179H16.4903C18.2446 0.883179 19.6667 2.30533 19.6667 4.05965V11.9404C19.6667 13.6947 18.2446 15.1169 16.4903 15.1169H13.3742C13.3411 13.9377 12.1207 12.9919 10.9335 12.9919C9.74624 12.9919 8.53321 13.9377 8.50012 15.1169H4.84323C3.08891 15.1169 1.66676 13.6947 1.66676 11.9404L1.66675 4.05965C1.66675 2.30533 3.0889 0.883179 4.84322 0.883179Z" stroke="#535353" stroke-width="1.5" stroke-linecap="round" stroke-linejoin="round"/>
</svg>
