<svg width="123" height="22" viewBox="0 0 123 22" fill="none" xmlns="http://www.w3.org/2000/svg">
<path d="M29.8296 0.0786743V21.8681H44.4438V16.9449H36.1681L36.1836 0.0786743H29.8296ZM102.558 0.0786743H96.2194L96.2039 12.8423C96.2039 13.9971 95.9249 14.8886 95.367 15.5166C94.8194 16.1447 94.0342 16.4587 93.0114 16.4587C91.9886 16.4587 91.193 16.1447 90.6248 15.5166C90.0669 14.8886 89.7879 13.9971 89.7879 12.8423V0.0786743H83.4339V12.4473C83.4339 15.5875 84.2863 17.9883 85.991 19.6496C87.6957 21.3109 90.0359 21.9651 93.0114 21.9651C95.9766 21.9651 98.3064 21.3109 100.001 19.6496C101.706 17.9782 102.558 15.5774 102.558 12.4473V0.0786743ZM122.317 0.0786743V5.0018H116.924V21.9651H110.586V5.0018H105.177V0.0786743H122.317Z" fill="white"/>
<path d="M29.8296 0.0786743V21.8681H44.4438V16.9449H36.1681L36.1836 0.0786743H29.8296ZM102.558 0.0786743H96.2194L96.2039 12.8423C96.2039 13.9971 95.9249 14.8886 95.367 15.5166C94.8194 16.1447 94.0342 16.4587 93.0114 16.4587C91.9886 16.4587 91.193 16.1447 90.6248 15.5166C90.0669 14.8886 89.7879 13.9971 89.7879 12.8423V0.0786743H83.4339V12.4473C83.4339 15.5875 84.2863 17.9883 85.991 19.6496C87.6957 21.3109 90.0359 21.9651 93.0114 21.9651C95.9766 21.9651 98.3064 21.3109 100.001 19.6496C101.706 17.9782 102.558 15.5774 102.558 12.4473V0.0786743ZM122.317 0.0786743V5.0018H116.924V21.9651H110.586V5.0018H105.177V0.0786743H122.317Z" stroke="white"/>
<path d="M75.1206 20.6102C73.3574 21.5134 71.3802 21.9651 69.189 21.9651C66.9978 21.9651 65.0206 21.5134 63.2574 20.6102C61.4942 19.7069 60.0979 18.4216 59.0686 16.754C58.0494 15.0766 57.5398 13.1658 57.5398 11.0219C57.5398 8.8779 58.0494 6.97214 59.0686 5.30461C60.0979 3.62715 61.4942 2.33679 63.2574 1.43355C65.0206 0.530298 66.9978 0.0786743 69.189 0.0786743C71.3802 0.0786743 73.3574 0.530298 75.1206 1.43355C76.8838 2.33679 78.275 3.62715 79.2942 5.30461C80.3235 6.97214 80.8382 8.8779 80.8382 11.0219C80.8382 13.1658 80.3235 15.0766 79.2942 16.754C78.275 18.4216 76.8838 19.7069 75.1206 20.6102ZM65.2754 14.8929C66.3455 15.8954 67.65 16.3967 69.189 16.3967C70.7382 16.3967 72.0427 15.8954 73.1026 14.8929C74.1728 13.8805 74.7079 12.5901 74.7079 11.0219C74.7079 9.44367 74.1728 8.15828 73.1026 7.1657C72.0427 6.16319 70.7382 5.66194 69.189 5.66194C67.65 5.66194 66.3455 6.16319 65.2754 7.1657C64.2154 8.15828 63.6854 9.44367 63.6854 11.0219C63.6854 12.5901 64.2154 13.8805 65.2754 14.8929Z" fill="white"/>
<path d="M75.1206 20.6102C73.3574 21.5134 71.3802 21.9651 69.189 21.9651C66.9978 21.9651 65.0206 21.5134 63.2574 20.6102C61.4942 19.7069 60.0979 18.4216 59.0686 16.754C58.0494 15.0766 57.5398 13.1658 57.5398 11.0219C57.5398 8.8779 58.0494 6.97214 59.0686 5.30461C60.0979 3.62715 61.4942 2.33679 63.2574 1.43355C65.0206 0.530298 66.9978 0.0786743 69.189 0.0786743C71.3802 0.0786743 73.3574 0.530298 75.1206 1.43355C76.8838 2.33679 78.275 3.62715 79.2942 5.30461C80.3235 6.97214 80.8382 8.8779 80.8382 11.0219C80.8382 13.1658 80.3235 15.0766 79.2942 16.754C78.275 18.4216 76.8838 19.7069 75.1206 20.6102ZM65.2754 14.8929C66.3455 15.8954 67.65 16.3967 69.189 16.3967C70.7382 16.3967 72.0427 15.8954 73.1026 14.8929C74.1728 13.8805 74.7079 12.5901 74.7079 11.0219C74.7079 9.44367 74.1728 8.15828 73.1026 7.1657C72.0427 6.16319 70.7382 5.66194 69.189 5.66194C67.65 5.66194 66.3455 6.16319 65.2754 7.1657C64.2154 8.15828 63.6854 9.44367 63.6854 11.0219C63.6854 12.5901 64.2154 13.8805 65.2754 14.8929Z" stroke="white"/>
<path d="M48.7419 4.98905H40.6289V0.112385H54.9481V21.9215H48.7596L48.7748 5.02197L48.7748 4.98905H48.7419Z" fill="white" stroke="white" stroke-width="0.0657706"/>
<path d="M23.8339 3.58123L25.1731 5.94534C25.2085 6.0086 25.1889 6.08954 25.1265 6.1269C24.2186 6.66505 23.0289 6.77453 21.8464 6.18074C21.2581 5.8854 20.7882 5.39019 20.5251 4.78731C19.4585 2.34469 21.2475 0.0207146 23.5367 0.0696897C25.2891 0.10718 26.6884 1.46636 26.7237 3.20234C26.7251 3.27778 26.6612 3.33891 26.5858 3.3373L23.9801 3.33632C23.8531 3.33361 23.7707 3.46975 23.8339 3.58123Z" fill="#111111"/>
<path d="M20.4744 9.08026H26.4445V22H20.4744V9.08026Z" fill="white"/>
<path d="M9.64626 16.5194H16.9288C17.0941 16.5194 17.1979 16.6996 17.1173 16.8465L14.3556 21.8528C14.3174 21.9221 14.245 21.9651 14.1671 21.9651H0.216658C0.0486623 21.9651 -0.0551399 21.7794 0.0309066 21.6339L9.26793 5.82498C9.35398 5.6781 9.24881 5.49381 9.08218 5.49381H5.23604C5.15955 5.49381 5.08853 5.45224 5.05029 5.38573L2.15612 0.409846C2.07144 0.262967 2.17524 0.0786743 2.34187 0.0786743H18.1567C18.3233 0.0786743 18.4271 0.260195 18.3452 0.407074L9.45914 16.191C9.37583 16.3379 9.481 16.5194 9.64626 16.5194Z" fill="white"/>
</svg>
