<svg width="540" height="349" viewBox="0 0 540 349" fill="none" xmlns="http://www.w3.org/2000/svg">
<path d="M739.236 123.129L722.256 144.76L-35.2426 285.062L-75.5512 209.97L739.236 123.129Z" fill="url(#paint0_linear_331_632)"/>
<rect x="-225.648" y="261.057" width="948" height="48" transform="rotate(-7.63536 -225.648 261.057)" fill="url(#paint1_linear_331_632)"/>
<path d="M25.9214 249.005C26.0294 249.811 25.9436 250.576 25.664 251.299C25.3825 252.01 24.886 252.621 24.1745 253.134C23.4629 253.646 22.5389 253.978 21.4024 254.131L19.3012 254.412L19.9708 259.408L16.5811 259.862L14.7157 245.947L20.2065 245.21C21.3166 245.062 22.2806 245.128 23.0984 245.408C23.9163 245.688 24.562 246.14 25.0356 246.763C25.5092 247.385 25.8044 248.133 25.9214 249.005ZM20.7833 251.469C21.4308 251.383 21.8928 251.166 22.1692 250.819C22.4456 250.473 22.5466 250.022 22.4722 249.467C22.3978 248.912 22.1817 248.504 21.8237 248.242C21.4658 247.981 20.9631 247.894 20.3156 247.981L18.4721 248.228L18.9398 251.716L20.7833 251.469ZM30.8392 246.55L31.2166 249.364L35.756 248.756L36.1067 251.372L31.5673 251.981L31.9766 255.034L37.1106 254.345L37.4747 257.061L28.951 258.204L27.0855 244.288L35.6092 243.146L35.9733 245.861L30.8392 246.55ZM46.2751 256.023C44.9668 256.198 43.7234 256.055 42.5451 255.594C41.38 255.132 40.401 254.402 39.6082 253.405C38.8268 252.393 38.3449 251.207 38.1624 249.846C37.9799 248.485 38.1332 247.22 38.6223 246.051C39.1246 244.881 39.8768 243.919 40.8789 243.166C41.8943 242.411 43.0561 241.946 44.3644 241.77C45.6727 241.595 46.9094 241.738 48.0746 242.201C49.2529 242.662 50.2253 243.393 50.9916 244.393C51.7712 245.391 52.2523 246.571 52.4347 247.933C52.6172 249.294 52.4648 250.565 51.9775 251.747C51.4885 252.916 50.7429 253.877 49.7407 254.63C48.7386 255.383 47.5834 255.847 46.2751 256.023ZM45.8605 252.93C46.9706 252.782 47.8064 252.293 48.3679 251.464C48.9427 250.634 49.1486 249.611 48.9856 248.395C48.8208 247.166 48.3528 246.233 47.5814 245.597C46.8214 244.945 45.8864 244.694 44.7763 244.843C43.653 244.993 42.8031 245.477 42.2266 246.294C41.6633 247.11 41.4649 248.139 41.6314 249.381C41.7961 250.61 42.2585 251.55 43.0185 252.201C43.7899 252.838 44.7372 253.081 45.8605 252.93ZM64.5988 243.82C64.7069 244.626 64.6211 245.391 64.3414 246.114C64.06 246.825 63.5635 247.436 62.8519 247.949C62.1403 248.461 61.2163 248.793 60.0798 248.946L57.9786 249.227L58.6483 254.223L55.2586 254.677L53.3931 240.762L58.884 240.026C59.9941 239.877 60.958 239.943 61.7759 240.223C62.5937 240.504 63.2395 240.955 63.713 241.578C64.1866 242.2 64.4819 242.948 64.5988 243.82ZM59.4607 246.284C60.1083 246.198 60.5702 245.981 60.8466 245.634C61.1231 245.288 61.2241 244.837 61.1497 244.282C61.0753 243.727 60.8591 243.319 60.5012 243.058C60.1433 242.796 59.6406 242.709 58.993 242.796L57.1495 243.043L57.6172 246.532L59.4607 246.284ZM70.6673 249.948L75.1076 249.353L75.4584 251.969L67.6284 253.019L65.7629 239.103L69.1526 238.649L70.6673 249.948ZM78.9634 240.098L79.3408 242.913L83.8801 242.305L84.2309 244.921L79.6915 245.53L80.1008 248.582L85.2348 247.894L85.5989 250.61L77.0751 251.752L75.2097 237.837L83.7334 236.694L84.0975 239.41L78.9634 240.098Z" fill="white" fill-opacity="0.6"/>
<circle cx="105.606" cy="240.865" r="4" transform="rotate(-7.63536 105.606 240.865)" fill="white" fill-opacity="0.6"/>
<path d="M136.928 234.123C137.036 234.929 136.95 235.694 136.671 236.418C136.389 237.128 135.893 237.739 135.181 238.252C134.47 238.764 133.546 239.097 132.409 239.249L130.308 239.531L130.978 244.526L127.588 244.98L125.723 231.065L131.213 230.329C132.323 230.18 133.287 230.246 134.105 230.526C134.923 230.807 135.569 231.258 136.042 231.881C136.516 232.503 136.811 233.251 136.928 234.123ZM131.79 236.588C132.438 236.501 132.9 236.284 133.176 235.938C133.452 235.591 133.553 235.14 133.479 234.585C133.405 234.03 133.188 233.622 132.831 233.361C132.473 233.099 131.97 233.012 131.322 233.099L129.479 233.346L129.947 236.835L131.79 236.588ZM148.291 239.703L143.097 240.399L142.594 242.969L139.046 243.444L142.215 228.854L146.14 228.328L153.041 241.568L149.453 242.049L148.291 239.703ZM147.068 237.203L144.66 232.34L143.638 237.663L147.068 237.203ZM161.67 240.411L158.071 235.546L157.259 235.655L157.963 240.908L154.573 241.363L152.708 227.447L158.397 226.685C159.494 226.537 160.451 226.604 161.269 226.885C162.1 227.163 162.752 227.614 163.226 228.237C163.698 228.846 163.988 229.56 164.098 230.38C164.222 231.305 164.069 232.166 163.638 232.964C163.22 233.76 162.522 234.378 161.545 234.818L165.495 239.899L161.67 240.411ZM156.937 233.257L159.038 232.975C159.659 232.892 160.102 232.678 160.365 232.333C160.641 231.987 160.742 231.536 160.668 230.981C160.597 230.452 160.383 230.057 160.025 229.796C159.68 229.533 159.197 229.443 158.576 229.526L156.475 229.808L156.937 233.257ZM175.649 224.372L176.013 227.087L172.326 227.582L173.828 238.782L170.438 239.236L168.937 228.036L165.25 228.53L164.886 225.815L175.649 224.372ZM180.74 223.689L182.606 237.605L179.216 238.059L177.351 224.144L180.74 223.689ZM186.95 225.621L187.328 228.436L191.867 227.828L192.218 230.444L187.679 231.053L188.088 234.105L193.222 233.417L193.586 236.133L185.062 237.275L183.197 223.36L191.72 222.217L192.084 224.933L186.95 225.621ZM200.84 235.302C199.822 235.438 198.889 235.395 198.038 235.173C197.188 234.95 196.475 234.548 195.899 233.966C195.336 233.383 194.981 232.636 194.832 231.728L198.44 231.245C198.562 231.753 198.793 232.125 199.134 232.362C199.474 232.586 199.888 232.665 200.377 232.599C200.879 232.532 201.26 232.366 201.521 232.103C201.78 231.826 201.882 231.483 201.827 231.073C201.781 230.729 201.624 230.461 201.356 230.268C201.101 230.074 200.792 229.927 200.429 229.828C200.079 229.727 199.581 229.625 198.935 229.523C198 229.366 197.229 229.187 196.624 228.986C196.018 228.784 195.474 228.44 194.992 227.953C194.51 227.467 194.21 226.787 194.093 225.915C193.919 224.62 194.253 223.546 195.094 222.693C195.933 221.827 197.106 221.294 198.612 221.092C200.145 220.886 201.43 221.09 202.468 221.705C203.504 222.306 204.142 223.256 204.384 224.555L200.716 225.047C200.63 224.601 200.418 224.273 200.08 224.063C199.741 223.839 199.333 223.759 198.857 223.823C198.448 223.878 198.132 224.035 197.911 224.293C197.689 224.538 197.605 224.866 197.66 225.275C197.72 225.725 197.978 226.046 198.435 226.241C198.891 226.435 199.588 226.618 200.526 226.788C201.465 226.971 202.231 227.165 202.823 227.368C203.429 227.569 203.972 227.907 204.452 228.38C204.933 228.854 205.229 229.507 205.341 230.34C205.447 231.133 205.339 231.88 205.016 232.583C204.706 233.283 204.194 233.877 203.479 234.363C202.764 234.849 201.884 235.162 200.84 235.302Z" fill="white" fill-opacity="0.6"/>
<circle cx="226.525" cy="224.655" r="4" transform="rotate(-7.63536 226.525 224.655)" fill="white" fill-opacity="0.6"/>
<path d="M257.847 217.913C257.955 218.719 257.869 219.484 257.589 220.208C257.308 220.918 256.811 221.529 256.1 222.042C255.388 222.554 254.464 222.887 253.328 223.039L251.226 223.321L251.896 228.316L248.506 228.77L246.641 214.855L252.132 214.119C253.242 213.97 254.206 214.036 255.024 214.316C255.842 214.597 256.487 215.048 256.961 215.671C257.434 216.293 257.73 217.041 257.847 217.913ZM252.709 220.378C253.356 220.291 253.818 220.074 254.094 219.728C254.371 219.381 254.472 218.93 254.398 218.375C254.323 217.82 254.107 217.412 253.749 217.151C253.391 216.889 252.888 216.802 252.241 216.889L250.397 217.136L250.865 220.625L252.709 220.378ZM262.341 212.75L263.457 221.076C263.569 221.908 263.859 222.522 264.329 222.916C264.799 223.31 265.431 223.454 266.224 223.348C267.016 223.242 267.594 222.936 267.957 222.43C268.32 221.924 268.445 221.254 268.333 220.422L267.217 212.096L270.607 211.642L271.72 219.948C271.887 221.19 271.764 222.276 271.35 223.206C270.937 224.136 270.31 224.879 269.47 225.435C268.643 225.99 267.681 226.341 266.584 226.488C265.487 226.635 264.474 226.556 263.545 226.25C262.628 225.929 261.861 225.373 261.243 224.581C260.624 223.776 260.231 222.752 260.065 221.51L258.951 213.204L262.341 212.75ZM282.321 216.973C283.15 217.037 283.851 217.353 284.425 217.922C284.998 218.477 285.338 219.158 285.446 219.964C285.602 221.127 285.316 222.107 284.589 222.904C283.873 223.686 282.788 224.175 281.335 224.369L274.853 225.238L272.987 211.323L279.251 210.483C280.665 210.294 281.812 210.469 282.692 211.011C283.585 211.55 284.106 212.375 284.254 213.485C284.364 214.304 284.238 215.014 283.874 215.614C283.524 216.213 283.006 216.666 282.321 216.973ZM277.132 216.498L279.352 216.2C279.907 216.126 280.314 215.95 280.573 215.674C280.843 215.382 280.946 214.998 280.882 214.522C280.819 214.046 280.618 213.703 280.28 213.493C279.956 213.281 279.516 213.212 278.961 213.287L276.741 213.584L277.132 216.498ZM280.373 221.714C280.942 221.637 281.361 221.453 281.631 221.162C281.913 220.855 282.021 220.457 281.955 219.968C281.89 219.479 281.673 219.118 281.306 218.885C280.951 218.65 280.49 218.57 279.922 218.646L277.464 218.976L277.876 222.048L280.373 221.714ZM292.973 222.951C291.955 223.087 291.021 223.044 290.171 222.822C289.321 222.599 288.608 222.197 288.032 221.615C287.469 221.031 287.114 220.285 286.965 219.377L290.573 218.893C290.695 219.402 290.926 219.774 291.267 220.011C291.607 220.235 292.021 220.314 292.51 220.248C293.012 220.181 293.393 220.015 293.654 219.752C293.913 219.475 294.015 219.132 293.96 218.722C293.914 218.378 293.757 218.11 293.489 217.917C293.234 217.723 292.925 217.576 292.562 217.477C292.212 217.375 291.714 217.274 291.068 217.172C290.133 217.015 289.362 216.836 288.756 216.635C288.151 216.433 287.607 216.089 287.125 215.602C286.643 215.115 286.343 214.436 286.226 213.564C286.052 212.269 286.386 211.195 287.227 210.342C288.066 209.476 289.239 208.942 290.745 208.741C292.278 208.535 293.563 208.739 294.601 209.354C295.637 209.955 296.275 210.905 296.517 212.204L292.849 212.696C292.763 212.25 292.551 211.922 292.213 211.712C291.874 211.488 291.466 211.408 290.99 211.472C290.581 211.527 290.265 211.684 290.044 211.942C289.822 212.187 289.738 212.515 289.793 212.924C289.853 213.373 290.111 213.695 290.568 213.89C291.024 214.084 291.721 214.266 292.659 214.437C293.598 214.62 294.364 214.814 294.956 215.017C295.562 215.218 296.105 215.555 296.585 216.029C297.066 216.503 297.362 217.156 297.474 217.989C297.58 218.781 297.472 219.529 297.149 220.232C296.839 220.932 296.327 221.526 295.612 222.012C294.897 222.498 294.017 222.811 292.973 222.951Z" fill="white" fill-opacity="0.6"/>
<circle cx="318.7" cy="212.298" r="4" transform="rotate(-7.63536 318.7 212.298)" fill="white" fill-opacity="0.6"/>
<path d="M350.022 205.557C350.13 206.363 350.044 207.128 349.765 207.851C349.483 208.561 348.987 209.173 348.275 209.685C347.563 210.198 346.639 210.53 345.503 210.682L343.402 210.964L344.071 215.959L340.682 216.414L338.816 202.498L344.307 201.762C345.417 201.613 346.381 201.679 347.199 201.96C348.017 202.24 348.663 202.692 349.136 203.314C349.61 203.937 349.905 204.684 350.022 205.557ZM344.884 208.021C345.531 207.934 345.993 207.718 346.27 207.371C346.546 207.025 346.647 206.574 346.573 206.019C346.498 205.464 346.282 205.056 345.924 204.794C345.566 204.533 345.064 204.446 344.416 204.532L342.573 204.779L343.04 208.268L344.884 208.021ZM354.94 203.101L355.317 205.916L359.857 205.308L360.207 207.924L355.668 208.533L356.077 211.585L361.211 210.897L361.575 213.613L353.052 214.756L351.186 200.84L359.71 199.697L360.074 202.413L354.94 203.101ZM370.376 212.574C369.067 212.75 367.824 212.607 366.646 212.146C365.481 211.684 364.502 210.954 363.709 209.957C362.927 208.945 362.445 207.759 362.263 206.398C362.081 205.036 362.234 203.772 362.723 202.603C363.225 201.432 363.977 200.471 364.98 199.717C365.995 198.962 367.157 198.497 368.465 198.322C369.773 198.147 371.01 198.29 372.175 198.753C373.353 199.214 374.326 199.944 375.092 200.945C375.872 201.943 376.353 203.123 376.535 204.484C376.718 205.845 376.565 207.117 376.078 208.299C375.589 209.468 374.843 210.428 373.841 211.182C372.839 211.935 371.684 212.399 370.376 212.574ZM369.961 209.482C371.071 209.333 371.907 208.845 372.469 208.016C373.043 207.186 373.249 206.162 373.086 204.947C372.921 203.718 372.453 202.785 371.682 202.148C370.922 201.497 369.987 201.246 368.877 201.394C367.754 201.545 366.904 202.029 366.327 202.846C365.764 203.662 365.565 204.69 365.732 205.933C365.897 207.162 366.359 208.102 367.119 208.753C367.89 209.39 368.838 209.633 369.961 209.482ZM388.699 200.372C388.807 201.178 388.722 201.943 388.442 202.666C388.161 203.377 387.664 203.988 386.952 204.5C386.241 205.013 385.317 205.345 384.18 205.497L382.079 205.779L382.749 210.774L379.359 211.229L377.494 197.313L382.985 196.577C384.095 196.428 385.059 196.494 385.876 196.775C386.694 197.055 387.34 197.507 387.814 198.129C388.287 198.752 388.582 199.499 388.699 200.372ZM383.561 202.836C384.209 202.749 384.671 202.533 384.947 202.186C385.224 201.84 385.325 201.389 385.25 200.834C385.176 200.279 384.96 199.871 384.602 199.609C384.244 199.348 383.741 199.261 383.094 199.347L381.25 199.594L381.718 203.083L383.561 202.836ZM394.768 206.5L399.208 205.904L399.559 208.521L391.729 209.571L389.864 195.655L393.253 195.201L394.768 206.5ZM403.064 196.65L403.441 199.465L407.981 198.856L408.332 201.473L403.792 202.081L404.201 205.134L409.335 204.446L409.699 207.162L401.176 208.304L399.31 194.389L407.834 193.246L408.198 195.962L403.064 196.65Z" fill="white" fill-opacity="0.6"/>
<circle cx="429.707" cy="197.416" r="4" transform="rotate(-7.63536 429.707 197.416)" fill="white" fill-opacity="0.6"/>
<path d="M461.029 190.676C461.137 191.482 461.052 192.247 460.772 192.97C460.49 193.681 459.994 194.292 459.282 194.804C458.571 195.317 457.647 195.649 456.51 195.802L454.409 196.083L455.079 201.079L451.689 201.533L449.824 187.617L455.314 186.881C456.425 186.733 457.388 186.798 458.206 187.079C459.024 187.359 459.67 187.811 460.144 188.434C460.617 189.056 460.912 189.804 461.029 190.676ZM455.891 193.14C456.539 193.053 457.001 192.837 457.277 192.49C457.554 192.144 457.655 191.693 457.58 191.138C457.506 190.583 457.29 190.175 456.932 189.913C456.574 189.652 456.071 189.565 455.423 189.651L453.58 189.899L454.048 193.387L455.891 193.14ZM472.392 196.255L467.198 196.952L466.695 199.521L463.147 199.997L466.317 185.406L470.241 184.88L477.142 198.121L473.554 198.602L472.392 196.255ZM471.169 193.756L468.761 188.893L467.74 194.216L471.169 193.756ZM485.771 196.964L482.172 192.099L481.36 192.208L482.064 197.461L478.674 197.915L476.809 184L482.498 183.237C483.595 183.09 484.552 183.157 485.37 183.437C486.201 183.716 486.853 184.167 487.327 184.789C487.799 185.399 488.09 186.113 488.199 186.932C488.323 187.858 488.17 188.719 487.739 189.517C487.321 190.313 486.623 190.931 485.646 191.371L489.597 196.451L485.771 196.964ZM481.038 189.809L483.139 189.528C483.76 189.445 484.203 189.231 484.466 188.886C484.742 188.539 484.843 188.089 484.769 187.534C484.698 187.005 484.484 186.61 484.126 186.349C483.781 186.085 483.298 185.995 482.677 186.079L480.576 186.36L481.038 189.809ZM499.75 180.924L500.114 183.64L496.427 184.134L497.929 195.334L494.539 195.789L493.038 184.589L489.351 185.083L488.987 182.367L499.75 180.924ZM504.841 180.242L506.707 194.158L503.317 194.612L501.452 180.696L504.841 180.242ZM511.051 182.174L511.429 184.989L515.968 184.38L516.319 186.997L511.78 187.605L512.189 190.658L517.323 189.97L517.687 192.686L509.163 193.828L507.298 179.913L515.821 178.77L516.186 181.486L511.051 182.174ZM524.941 191.854C523.924 191.991 522.99 191.948 522.139 191.725C521.289 191.503 520.576 191.101 520 190.519C519.437 189.935 519.082 189.189 518.933 188.281L522.541 187.797C522.663 188.306 522.894 188.678 523.235 188.915C523.575 189.138 523.989 189.217 524.478 189.152C524.98 189.085 525.362 188.919 525.622 188.655C525.881 188.379 525.983 188.035 525.928 187.626C525.882 187.282 525.725 187.014 525.457 186.821C525.202 186.627 524.893 186.48 524.53 186.38C524.18 186.279 523.682 186.178 523.037 186.076C522.101 185.919 521.33 185.74 520.725 185.539C520.119 185.337 519.575 184.993 519.093 184.506C518.611 184.019 518.311 183.34 518.194 182.468C518.02 181.172 518.354 180.099 519.195 179.246C520.034 178.38 521.207 177.846 522.713 177.644C524.246 177.439 525.531 177.643 526.569 178.257C527.605 178.859 528.243 179.809 528.485 181.108L524.818 181.6C524.731 181.154 524.519 180.826 524.181 180.616C523.842 180.392 523.434 180.312 522.958 180.376C522.549 180.431 522.233 180.588 522.012 180.846C521.79 181.091 521.706 181.418 521.761 181.828C521.821 182.277 522.079 182.599 522.536 182.794C522.992 182.988 523.69 183.17 524.627 183.341C525.567 183.524 526.332 183.717 526.925 183.92C527.53 184.122 528.073 184.459 528.554 184.933C529.034 185.407 529.33 186.06 529.442 186.892C529.548 187.685 529.44 188.433 529.117 189.135C528.807 189.836 528.295 190.429 527.58 190.915C526.865 191.401 525.985 191.714 524.941 191.854Z" fill="white" fill-opacity="0.6"/>
<defs>
<linearGradient id="paint0_linear_331_632" x1="-38.8572" y1="271.572" x2="950.251" y2="6.54122" gradientUnits="userSpaceOnUse">
<stop stop-color="#6735D3"/>
<stop offset="1" stop-color="#8E58FF" stop-opacity="0"/>
</linearGradient>
<linearGradient id="paint1_linear_331_632" x1="722.352" y1="285.057" x2="-225.648" y2="285.057" gradientUnits="userSpaceOnUse">
<stop stop-color="#C1ABEF"/>
<stop offset="1" stop-color="#712FFF"/>
</linearGradient>
</defs>
</svg>
