<svg width="25" height="24" viewBox="0 0 25 24" fill="none" xmlns="http://www.w3.org/2000/svg">
<path d="M5.1364 15.4274C5.00794 16.3992 4.87948 16.9198 4.87948 17.4405C4.84736 19.28 4.91159 21.1543 4.81525 22.9938C4.81525 23.0979 4.78313 23.1673 4.75102 23.2715C4.46198 24.0698 3.40218 24.1392 3.0168 23.4103C2.98468 23.3409 2.95257 23.2715 2.95257 23.202C2.56719 20.2865 2.18181 17.371 2.05334 14.4208C1.98911 13.206 2.40661 11.9218 2.79199 10.7417C3.11314 9.70048 2.95257 9.04102 2.08546 8.41627C1.34681 7.89564 0.351242 7.20148 0.190666 6.43789C-0.130485 4.77189 0.0300907 3.03647 0.126436 1.37047C0.126436 1.0928 1.05778 0.88455 1.3147 0.953967C1.66796 1.05809 1.79642 1.16222 1.92488 1.54401C2.08546 2.13405 1.98911 2.79351 1.98911 3.45297C1.98911 5.60489 3.04891 6.75027 5.10428 6.75027C5.84293 6.75027 6.6137 6.75027 7.35234 6.75027C8.60483 6.71556 9.63252 5.6396 9.69675 4.28597C9.72886 3.41826 9.6004 2.51584 9.76098 1.68284C9.79309 1.54401 9.85733 1.43988 9.92156 1.30105C10.3069 0.780425 11.0777 0.745717 11.4631 1.30105C11.5273 1.37047 11.5594 1.47459 11.5594 1.57872C11.5915 3.83476 11.9127 6.0561 10.1785 8.06919C9.05445 9.3534 8.50849 11.2276 7.86619 12.9284C7.6735 13.4143 7.96253 14.3167 8.34791 14.7679C10.3712 17.4057 9.53617 20.4948 9.6004 23.445C9.6004 23.7574 8.99022 24.0003 8.70118 24.0003C8.38003 24.0003 7.86619 23.7921 7.80196 23.4103C7.60927 22.3343 7.44869 21.2237 7.51292 20.1477C7.60927 18.2387 6.64581 17.024 5.1364 15.4274Z" fill="#0E7DE4"/>
<path d="M18.0469 15.6353C17.244 18.1343 16.4732 20.5986 15.6061 23.0282C15.2528 23.9654 13.8719 23.7571 13.7755 22.7158C13.7755 22.6117 13.7755 22.4729 13.7755 22.3688C14.3857 18.4814 15.1244 14.5941 15.8309 10.7067L14.9959 10.3944C14.6748 11.1232 14.2573 11.8174 14.0004 12.581C13.7434 13.3793 13.7434 14.3164 13.4544 15.1147C13.3902 15.2535 13.2938 15.3924 13.1654 15.4965C12.6836 15.8783 11.9771 15.7395 11.7202 15.1841C11.6881 15.08 11.6559 14.9759 11.6559 14.9065C11.6881 11.0885 13.2617 7.02766 17.3724 6.40291C19.4599 6.05582 20.6161 4.63278 21.3868 2.6544C21.6759 1.89082 21.8365 1.09252 22.254 0.433063C22.2861 0.398354 22.3182 0.363646 22.3182 0.328938C22.7999 -0.261105 23.7313 -0.0181464 23.9561 0.745438C23.9882 0.884272 24.0203 1.02311 23.9882 1.16194C23.2816 3.00148 22.6714 4.97986 21.5474 6.50703C19.6847 9.04074 19.7811 11.8174 20.8088 14.2817C21.997 17.0931 22.3824 19.8698 22.1576 22.82C22.1576 22.9241 22.1255 23.0282 22.0934 23.1323C21.7401 24.0348 20.4555 23.9306 20.2949 22.9588C19.8774 20.3904 20.1344 17.7178 18.0469 15.6353Z" fill="#0E7DE4"/>
<path d="M18.3679 2.4461C18.2073 3.79972 17.5971 4.63273 16.4089 4.59802C15.1885 4.56331 14.4498 3.73031 14.5462 2.34197C14.6104 1.37014 15.3491 0.606551 16.2483 0.502426C17.5008 0.433009 18.1431 1.30072 18.3679 2.4461Z" fill="#0E7DE4"/>
<path d="M3.88379 3.66058C4.01225 2.44579 4.59032 1.61279 5.71435 1.57808C6.77415 1.54337 7.70549 2.4805 7.70549 3.66058C7.70549 4.87537 6.99896 5.63896 5.87493 5.67367C4.68667 5.70837 4.04436 4.91008 3.88379 3.66058Z" fill="#0E7DE4"/>
</svg>
