<svg width="32" height="32" viewBox="0 0 32 32" fill="none" xmlns="http://www.w3.org/2000/svg">
<path d="M7.99208 19.9981C7.84222 21.1319 7.69236 21.7393 7.69236 22.3467C7.6549 24.4928 7.72983 26.6795 7.61743 28.8256C7.61743 28.9471 7.57997 29.0281 7.5425 29.1495C7.20531 30.0809 5.96896 30.1619 5.51937 29.3115C5.48191 29.2305 5.44444 29.1495 5.44444 29.0685C4.99486 25.6671 4.54528 22.2657 4.39542 18.8238C4.32049 17.4066 4.80753 15.9083 5.25712 14.5316C5.63177 13.3168 5.44444 12.5474 4.43288 11.8185C3.57118 11.2111 2.40976 10.4013 2.22243 9.51044C1.84778 7.56678 2.0351 5.54213 2.1475 3.59847C2.1475 3.27453 3.23399 3.03157 3.53371 3.11255C3.94583 3.23403 4.09569 3.35551 4.24555 3.80093C4.43288 4.48932 4.32049 5.25868 4.32049 6.02805C4.32049 8.53861 5.55684 9.87488 7.95462 9.87488C8.81632 9.87488 9.71549 9.87488 10.5772 9.87488C12.0383 9.83439 13.2372 8.5791 13.3122 6.99988C13.3496 5.98756 13.1998 4.93474 13.3871 3.96291C13.4245 3.80093 13.4995 3.67946 13.5744 3.51748C14.024 2.91009 14.9232 2.8696 15.3727 3.51748C15.4477 3.59847 15.4851 3.71995 15.4851 3.84143C15.5226 6.47347 15.8973 9.06502 13.8741 11.4136C12.5628 12.9119 11.9259 15.0985 11.1766 17.0826C10.9518 17.6495 11.289 18.7023 11.7386 19.2288C14.0989 22.3062 13.1248 25.9101 13.1998 29.352C13.1998 29.7164 12.4879 29.9999 12.1507 29.9999C11.7761 29.9999 11.1766 29.7569 11.1017 29.3115C10.8769 28.0562 10.6896 26.7604 10.7645 25.5052C10.8769 23.2781 9.75295 21.8608 7.99208 19.9981Z" fill="#D386B2"/>
<path d="M23.0533 20.2412C22.1166 23.1566 21.2175 26.0317 20.2059 28.8662C19.7938 29.9595 18.1828 29.7165 18.0704 28.5017C18.0704 28.3802 18.0704 28.2183 18.0704 28.0968C18.7822 23.5616 19.6439 19.0264 20.4681 14.4912L19.494 14.1267C19.1194 14.9771 18.6323 15.7869 18.3326 16.6778C18.0329 17.6091 18.0329 18.7024 17.6957 19.6338C17.6208 19.7957 17.5084 19.9577 17.3585 20.0792C16.7965 20.5246 15.9723 20.3626 15.6726 19.7147C15.6351 19.5933 15.5977 19.4718 15.5977 19.3908C15.6351 14.9366 17.4709 10.1989 22.2665 9.47003C24.7017 9.0651 26.0505 7.40489 26.9496 5.09679C27.2868 4.20594 27.4742 3.2746 27.9612 2.50524C27.9987 2.46475 28.0361 2.42425 28.0361 2.38376C28.5981 1.69538 29.6846 1.97883 29.9469 2.86967C29.9843 3.03165 30.0218 3.19362 29.9843 3.35559C29.1601 5.50172 28.4483 7.80982 27.137 9.59151C24.964 12.5475 25.0764 15.7869 26.2753 18.6619C27.6615 21.9419 28.1111 25.1813 27.8488 28.6232C27.8488 28.7447 27.8113 28.8662 27.7739 28.9876C27.3618 30.0405 25.8632 29.919 25.6758 28.7852C25.1888 25.7887 25.4885 22.6707 23.0533 20.2412Z" fill="#D386B2"/>
<path d="M23.4281 4.85369C23.2408 6.43292 22.529 7.40475 21.1428 7.36425C19.7191 7.32376 18.8574 6.35193 18.9698 4.73221C19.0447 3.59841 19.9064 2.70756 20.9554 2.58608C22.4166 2.5051 23.1659 3.51742 23.4281 4.85369Z" fill="#D386B2"/>
<path d="M6.53125 6.27081C6.68111 4.85356 7.35549 3.88173 8.66677 3.84124C9.90313 3.80075 10.9896 4.89405 10.9896 6.27081C10.9896 7.68807 10.1654 8.57891 8.8541 8.6194C7.46788 8.65989 6.71858 7.72856 6.53125 6.27081Z" fill="#D386B2"/>
</svg>
