<svg width="191" height="874" viewBox="0 0 191 874" fill="none" xmlns="http://www.w3.org/2000/svg">
<path d="M127 -22L143.5 0L82.9655 768L0 787.5L127 -22Z" fill="url(#paint0_linear_331_633)"/>
<rect x="19.3008" y="867.074" width="948" height="48" transform="rotate(-82.6354 19.3008 867.074)" fill="url(#paint1_linear_331_633)"/>
<path d="M45.2106 834.184C46.0172 834.288 46.7338 834.569 47.3604 835.027C47.9737 835.482 48.4357 836.12 48.7465 836.94C49.0573 837.76 49.1392 838.739 48.9922 839.876L48.7205 841.978L53.7189 842.624L53.2805 846.016L39.3563 844.217L40.0665 838.722C40.2101 837.612 40.5231 836.697 41.0057 835.98C41.4883 835.263 42.0916 834.756 42.8156 834.459C43.5395 834.163 44.3379 834.071 45.2106 834.184ZM46.2614 839.785C46.3451 839.137 46.2554 838.635 45.9923 838.278C45.7292 837.922 45.3199 837.707 44.7645 837.636C44.2092 837.564 43.7589 837.667 43.4137 837.945C43.0686 838.223 42.8541 838.686 42.7704 839.334L42.532 841.179L46.0229 841.63L46.2614 839.785ZM41.3868 828.507L49.7175 829.584C50.5506 829.691 51.2184 829.569 51.721 829.217C52.2236 828.865 52.5261 828.293 52.6287 827.499C52.7312 826.706 52.5851 826.069 52.1902 825.587C51.7953 825.106 51.1813 824.812 50.3482 824.704L42.0175 823.627L42.4559 820.236L50.7668 821.31C52.0098 821.47 53.0268 821.871 53.818 822.511C54.6091 823.151 55.1648 823.949 55.4849 824.904C55.8068 825.847 55.8968 826.867 55.7549 827.964C55.6131 829.062 55.2742 830.019 54.7382 830.837C54.1908 831.641 53.4548 832.238 52.5303 832.629C51.5927 833.019 50.5023 833.133 49.2593 832.973L40.9484 831.899L41.3868 828.507ZM50.6369 810.301C50.913 809.516 51.4001 808.92 52.098 808.513C52.7828 808.104 53.5284 807.952 54.3351 808.056C55.4987 808.207 56.3714 808.736 56.953 809.645C57.5232 810.539 57.7142 811.713 57.5262 813.167L56.6879 819.654L42.7637 817.854L43.5738 811.586C43.7567 810.171 44.2234 809.109 44.9739 808.399C45.7261 807.676 46.6576 807.387 47.7683 807.53C48.5882 807.636 49.241 807.942 49.7267 808.449C50.2142 808.942 50.5176 809.559 50.6369 810.301ZM48.8353 815.19L49.1224 812.969C49.1942 812.413 49.1299 811.975 48.9294 811.653C48.7175 811.316 48.3735 811.117 47.8975 811.056C47.4214 810.994 47.0381 811.099 46.7476 811.371C46.4587 811.629 46.2784 812.036 46.2066 812.592L45.9195 814.813L48.8353 815.19ZM54.7121 813.409C54.7856 812.84 54.7164 812.388 54.5044 812.051C54.281 811.699 53.9246 811.492 53.4354 811.429C52.9461 811.366 52.5412 811.481 52.2208 811.776C51.9021 812.057 51.706 812.482 51.6325 813.051L51.3146 815.511L54.3891 815.908L54.7121 813.409ZM59.1678 801.559C59.0362 802.577 58.753 803.468 58.3182 804.232C57.8833 804.996 57.3103 805.58 56.5991 805.986C55.8897 806.378 55.077 806.528 54.1612 806.437L54.6278 802.827C55.1503 802.841 55.5701 802.714 55.8871 802.445C56.1909 802.175 56.3744 801.796 56.4376 801.306C56.5026 800.804 56.4414 800.393 56.2543 800.073C56.0538 799.751 55.7487 799.564 55.3387 799.511C54.9949 799.466 54.6952 799.549 54.4397 799.758C54.1858 799.953 53.964 800.214 53.7741 800.539C53.5859 800.851 53.3591 801.305 53.0936 801.903C52.6997 802.766 52.3272 803.464 51.976 803.997C51.6248 804.529 51.1516 804.966 50.5565 805.306C49.9613 805.645 49.2274 805.759 48.3547 805.646C47.0588 805.479 46.1079 804.879 45.5019 803.846C44.8828 802.811 44.6706 801.54 44.8655 800.033C45.0637 798.499 45.5938 797.31 46.4556 796.467C47.3042 795.622 48.3874 795.251 49.705 795.354L49.2308 799.024C48.7778 798.992 48.406 799.112 48.1154 799.384C47.8116 799.654 47.629 800.027 47.5675 800.503C47.5145 800.913 47.5842 801.258 47.7765 801.538C47.9556 801.817 48.2501 801.983 48.66 802.036C49.1096 802.094 49.4874 801.927 49.7933 801.537C50.0992 801.146 50.4558 800.52 50.8629 799.658C51.2833 798.798 51.6682 798.109 52.0177 797.589C52.3688 797.057 52.8354 796.619 53.4173 796.278C53.9992 795.936 54.7067 795.819 55.5398 795.927C56.3332 796.03 57.0274 796.328 57.6223 796.821C58.219 797.302 58.6595 797.95 58.9438 798.767C59.2282 799.583 59.3029 800.514 59.1678 801.559Z" fill="white" fill-opacity="0.6"/>
<circle cx="55.5364" cy="773.95" r="4" transform="rotate(-82.6354 55.5364 773.95)" fill="#CBB3FE"/>
<path d="M57.1315 741.952C57.9381 742.056 58.6547 742.337 59.2813 742.794C59.8946 743.25 60.3566 743.888 60.6674 744.708C60.9782 745.528 61.0601 746.506 60.9131 747.643L60.6414 749.746L65.6398 750.392L65.2014 753.784L51.2772 751.984L51.9874 746.49C52.131 745.379 52.444 744.465 52.9266 743.748C53.4092 743.03 54.0125 742.523 54.7365 742.227C55.4604 741.931 56.2588 741.839 57.1315 741.952ZM58.1823 747.553C58.266 746.905 58.1763 746.402 57.9132 746.046C57.6501 745.689 57.2408 745.475 56.6854 745.403C56.1301 745.331 55.6798 745.434 55.3346 745.712C54.9895 745.991 54.775 746.454 54.6913 747.101L54.4529 748.946L57.9438 749.397L58.1823 747.553ZM56.0328 736.566L58.8494 736.93L59.4365 732.388L62.0547 732.726L61.4676 737.269L64.5222 737.663L65.1862 732.526L67.9036 732.877L66.8012 741.406L52.877 739.607L53.9794 731.078L56.6968 731.429L56.0328 736.566ZM69.1782 724.108C69.009 725.417 68.5493 726.581 67.7992 727.6C67.0508 728.606 66.0925 729.362 64.9245 729.87C63.7449 730.363 62.4741 730.522 61.1121 730.346C59.7501 730.169 58.568 729.694 57.5657 728.919C56.5651 728.131 55.8308 727.156 55.3626 725.993C54.8962 724.816 54.7476 723.574 54.9168 722.265C55.086 720.956 55.5448 719.798 56.2932 718.793C57.0434 717.774 58.0008 717.023 59.1654 716.542C60.3318 716.048 61.5959 715.888 62.9579 716.064C64.3199 716.24 65.5087 716.717 66.5242 717.493C67.5265 718.268 68.2617 719.237 68.7298 720.4C69.1979 721.563 69.3474 722.799 69.1782 724.108ZM66.0839 723.708C66.2275 722.597 65.9717 721.663 65.3167 720.907C64.6634 720.137 63.7284 719.673 62.5119 719.516C61.2821 719.357 60.26 719.567 59.4455 720.148C58.6196 720.713 58.1348 721.551 57.9912 722.662C57.846 723.786 58.0934 724.732 58.7335 725.501C59.3753 726.256 60.3177 726.714 61.5607 726.874C62.7905 727.033 63.8184 726.83 64.6443 726.265C65.4588 725.684 65.9386 724.832 66.0839 723.708ZM62.1337 703.25C62.9403 703.355 63.6569 703.635 64.2834 704.093C64.8967 704.549 65.3588 705.186 65.6696 706.006C65.9804 706.826 66.0623 707.805 65.9153 708.942L65.6436 711.044L70.642 711.691L70.2036 715.082L56.2794 713.283L56.9895 707.788C57.1331 706.678 57.4462 705.763 57.9288 705.046C58.4114 704.329 59.0147 703.822 59.7386 703.526C60.4626 703.229 61.2609 703.137 62.1337 703.25ZM63.1844 708.851C63.2682 708.203 63.1785 707.701 62.9154 707.344C62.6522 706.988 62.243 706.773 61.6876 706.702C61.1322 706.63 60.682 706.733 60.3368 707.011C59.9916 707.289 59.7772 707.752 59.6935 708.4L59.455 710.245L62.946 710.696L63.1844 708.851ZM69.6235 698.975L70.1978 694.532L72.816 694.87L71.8034 702.705L57.8792 700.905L58.3176 697.513L69.6235 698.975ZM62.2567 688.412L65.0733 688.776L65.6604 684.234L68.2786 684.572L67.6915 689.114L70.7461 689.509L71.4101 684.372L74.1275 684.723L73.0251 693.252L59.1009 691.452L60.2033 682.923L62.9207 683.275L62.2567 688.412Z" fill="white" fill-opacity="0.6"/>
<circle cx="69.8928" cy="662.876" r="4" transform="rotate(-82.6354 69.8928 662.876)" fill="white" fill-opacity="0.6"/>
<path d="M71.488 630.876C72.2946 630.98 73.0112 631.261 73.6377 631.718C74.251 632.174 74.7131 632.812 75.0239 633.632C75.3347 634.452 75.4166 635.43 75.2696 636.567L74.9978 638.67L79.9963 639.316L79.5579 642.708L65.6337 640.908L66.3438 635.414C66.4874 634.303 66.8005 633.389 67.2831 632.671C67.7657 631.954 68.369 631.447 69.0929 631.151C69.8169 630.855 70.6152 630.763 71.488 630.876ZM72.5387 636.477C72.6224 635.829 72.5328 635.326 72.2696 634.97C72.0065 634.613 71.5973 634.399 71.0419 634.327C70.4865 634.255 70.0362 634.358 69.6911 634.636C69.3459 634.914 69.1315 635.377 69.0477 636.025L68.8093 637.87L72.3003 638.321L72.5387 636.477ZM79.8184 621.344L79.1468 626.541L81.4986 627.692L81.0397 631.243L67.7667 624.405L68.2743 620.477L82.8497 617.239L82.3857 620.829L79.8184 621.344ZM77.0874 621.879L71.7668 622.945L76.6439 625.31L77.0874 621.879ZM83.9657 608.605L78.3351 610.821L78.23 611.635L83.4863 612.314L83.0479 615.706L69.1237 613.906L69.8595 608.213C70.0013 607.116 70.3136 606.208 70.7962 605.491C71.2805 604.76 71.8846 604.247 72.6086 603.951C73.3193 603.653 74.0846 603.557 74.9044 603.663C75.8301 603.782 76.6223 604.153 77.2813 604.776C77.9419 605.386 78.3585 606.22 78.531 607.277L84.4604 604.777L83.9657 608.605ZM75.8299 611.324L76.1017 609.222C76.182 608.6 76.0898 608.118 75.8249 607.774C75.5618 607.418 75.1526 607.204 74.5972 607.132C74.0683 607.063 73.6312 607.168 73.2861 607.446C72.9426 607.711 72.7307 608.154 72.6504 608.776L72.3786 610.878L75.8299 611.324ZM72.0907 590.95L74.8081 591.301L74.3313 594.991L85.5381 596.439L85.0997 599.831L73.8929 598.382L73.4161 602.072L70.6987 601.721L72.0907 590.95ZM72.7491 585.856L86.6733 587.656L86.2349 591.048L72.3108 589.248L72.7491 585.856ZM76.2226 580.358L79.0392 580.722L79.6263 576.179L82.2445 576.518L81.6574 581.06L84.712 581.455L85.376 576.317L88.0934 576.669L86.991 585.198L73.0668 583.398L74.1692 574.869L76.8866 575.22L76.2226 580.358ZM89.168 569.447C89.0364 570.465 88.7532 571.356 88.3184 572.12C87.8835 572.884 87.3105 573.468 86.5993 573.874C85.8899 574.266 85.0772 574.417 84.1614 574.325L84.628 570.715C85.1505 570.729 85.5703 570.602 85.8873 570.333C86.1911 570.063 86.3746 569.684 86.4378 569.195C86.5027 568.692 86.4416 568.281 86.2544 567.961C86.054 567.639 85.7488 567.452 85.3389 567.399C84.9951 567.354 84.6954 567.437 84.4399 567.646C84.186 567.841 83.9641 568.102 83.7742 568.427C83.5861 568.739 83.3592 569.193 83.0938 569.791C82.6999 570.654 82.3273 571.352 81.9761 571.885C81.625 572.418 81.1518 572.854 80.5567 573.194C79.9615 573.533 79.2276 573.647 78.3548 573.534C77.059 573.367 76.108 572.767 75.5021 571.734C74.8829 570.699 74.6708 569.428 74.8656 567.921C75.0639 566.387 75.5939 565.198 76.4558 564.355C77.3044 563.51 78.3876 563.139 79.7052 563.242L79.2309 566.912C78.7779 566.88 78.4061 567 78.1156 567.272C77.8118 567.542 77.6292 567.915 77.5676 568.391C77.5147 568.801 77.5843 569.146 77.7767 569.426C77.9558 569.705 78.2503 569.871 78.6602 569.924C79.1098 569.982 79.4875 569.815 79.7935 569.425C80.0994 569.034 80.4559 568.408 80.8631 567.546C81.2834 566.686 81.6684 565.997 82.0178 565.477C82.369 564.945 82.8356 564.507 83.4175 564.166C83.9994 563.824 84.7069 563.707 85.54 563.815C86.3334 563.918 87.0275 564.216 87.6225 564.709C88.2192 565.19 88.6597 565.838 88.944 566.655C89.2284 567.471 89.303 568.402 89.168 569.447Z" fill="white" fill-opacity="0.6"/>
<circle cx="85.5315" cy="541.882" r="4" transform="rotate(-82.6354 85.5315 541.882)" fill="white" fill-opacity="0.6"/>
<path d="M87.1266 509.881C87.9333 509.986 88.6498 510.267 89.2764 510.724C89.8897 511.18 90.3517 511.818 90.6625 512.637C90.9733 513.457 91.0552 514.436 90.9083 515.573L90.6365 517.676L95.6349 518.322L95.1965 521.714L81.2724 519.914L81.9825 514.42C82.1261 513.309 82.4392 512.395 82.9218 511.677C83.4044 510.96 84.0076 510.453 84.7316 510.157C85.4556 509.86 86.2539 509.769 87.1266 509.881ZM88.1774 515.482C88.2611 514.834 88.1714 514.332 87.9083 513.975C87.6452 513.619 87.2359 513.405 86.6806 513.333C86.1252 513.261 85.6749 513.364 85.3298 513.642C84.9846 513.92 84.7702 514.383 84.6864 515.031L84.448 516.876L87.9389 517.327L88.1774 515.482ZM83.3029 504.204L91.6336 505.281C92.4666 505.388 93.1345 505.266 93.637 504.915C94.1396 504.563 94.4422 503.99 94.5447 503.197C94.6473 502.403 94.5011 501.766 94.1062 501.285C93.7113 500.804 93.0973 500.509 92.2642 500.401L83.9335 499.325L84.3719 495.933L92.6828 497.007C93.9258 497.168 94.9428 497.568 95.734 498.208C96.5251 498.848 97.0808 499.646 97.4009 500.601C97.7228 501.544 97.8128 502.564 97.671 503.661C97.5291 504.759 97.1902 505.717 96.6542 506.535C96.1068 507.338 95.3708 507.935 94.4464 508.326C93.5087 508.716 92.4183 508.831 91.1753 508.67L82.8645 507.596L83.3029 504.204ZM92.5529 485.998C92.829 485.214 93.3161 484.618 94.0141 484.211C94.6988 483.802 95.4445 483.649 96.2511 483.754C97.4147 483.904 98.2874 484.433 98.869 485.342C99.4392 486.236 99.6302 487.41 99.4422 488.865L98.6039 495.351L84.6797 493.551L85.4899 487.283C85.6727 485.868 86.1394 484.806 86.8899 484.096C87.6421 483.374 88.5736 483.084 89.6844 483.227C90.5042 483.333 91.157 483.64 91.6428 484.146C92.1302 484.639 92.4336 485.257 92.5529 485.998ZM90.7513 490.887L91.0384 488.666C91.1102 488.11 91.0459 487.672 90.8454 487.35C90.6335 487.014 90.2895 486.815 89.8135 486.753C89.3374 486.692 88.9542 486.797 88.6636 487.068C88.3748 487.327 88.1944 487.734 88.1227 488.289L87.8355 490.511L90.7513 490.887ZM96.6281 489.106C96.7016 488.537 96.6324 488.085 96.4204 487.748C96.197 487.397 95.8406 487.189 95.3514 487.126C94.8621 487.063 94.4573 487.179 94.1368 487.473C93.8181 487.755 93.622 488.18 93.5485 488.748L93.2307 491.208L96.3051 491.605L96.6281 489.106ZM101.084 477.256C100.952 478.274 100.669 479.165 100.234 479.929C99.7994 480.693 99.2263 481.278 98.5152 481.683C97.8057 482.075 96.993 482.226 96.0772 482.134L96.5438 478.524C97.0663 478.538 97.4861 478.411 97.8031 478.143C98.1069 477.873 98.2904 477.493 98.3536 477.004C98.4186 476.501 98.3575 476.09 98.1703 475.77C97.9698 475.448 97.6647 475.261 97.2548 475.208C96.9109 475.164 96.6113 475.246 96.3557 475.455C96.1018 475.651 95.88 475.911 95.6901 476.236C95.5019 476.548 95.2751 477.002 95.0096 477.6C94.6157 478.463 94.2432 479.161 93.892 479.694C93.5408 480.227 93.0676 480.663 92.4725 481.003C91.8774 481.343 91.1434 481.456 90.2707 481.343C88.9748 481.176 88.0239 480.576 87.4179 479.543C86.7988 478.508 86.5866 477.237 86.7815 475.73C86.9797 474.196 87.5098 473.007 88.3716 472.164C89.2203 471.319 90.3034 470.949 91.6211 471.052L91.1468 474.721C90.6938 474.689 90.322 474.809 90.0314 475.081C89.7277 475.351 89.545 475.724 89.4835 476.2C89.4305 476.61 89.5002 476.955 89.6925 477.235C89.8716 477.514 90.1661 477.68 90.576 477.733C91.0256 477.791 91.4034 477.625 91.7093 477.234C92.0153 476.843 92.3718 476.217 92.7789 475.356C93.1993 474.496 93.5842 473.806 93.9337 473.287C94.2848 472.754 94.7514 472.317 95.3333 471.975C95.9152 471.634 96.6227 471.517 97.4558 471.624C98.2492 471.727 98.9434 472.025 99.5383 472.519C100.135 472.999 100.576 473.648 100.86 474.464C101.144 475.281 101.219 476.211 101.084 477.256Z" fill="white" fill-opacity="0.6"/>
<circle cx="97.4524" cy="449.648" r="4" transform="rotate(-82.6354 97.4524 449.648)" fill="white" fill-opacity="0.6"/>
<path d="M99.0475 417.649C99.8542 417.753 100.571 418.034 101.197 418.492C101.811 418.947 102.273 419.585 102.583 420.405C102.894 421.225 102.976 422.204 102.829 423.341L102.557 425.443L107.556 426.089L107.117 429.481L93.1933 427.681L93.9034 422.187C94.047 421.076 94.3601 420.162 94.8427 419.445C95.3253 418.727 95.9285 418.221 96.6525 417.924C97.3765 417.628 98.1748 417.536 99.0475 417.649ZM100.098 423.25C100.182 422.602 100.092 422.1 99.8292 421.743C99.5661 421.386 99.1568 421.172 98.6015 421.1C98.0461 421.029 97.5958 421.132 97.2507 421.41C96.9055 421.688 96.6911 422.151 96.6073 422.799L96.3689 424.643L99.8598 425.095L100.098 423.25ZM97.9488 412.263L100.765 412.627L101.352 408.085L103.971 408.424L103.384 412.966L106.438 413.361L107.102 408.223L109.82 408.575L108.717 417.104L94.7931 415.304L95.8954 406.775L98.6128 407.126L97.9488 412.263ZM111.094 399.805C110.925 401.114 110.465 402.278 109.715 403.297C108.967 404.303 108.009 405.06 106.84 405.568C105.661 406.06 104.39 406.219 103.028 406.043C101.666 405.867 100.484 405.391 99.4817 404.616C98.4811 403.828 97.7468 402.853 97.2787 401.69C96.8122 400.514 96.6636 399.271 96.8328 397.962C97.002 396.653 97.4608 395.495 98.2093 394.49C98.9594 393.471 99.9168 392.721 101.081 392.239C102.248 391.745 103.512 391.586 104.874 391.762C106.236 391.938 107.425 392.414 108.44 393.191C109.442 393.965 110.178 394.934 110.646 396.097C111.114 397.26 111.263 398.496 111.094 399.805ZM108 399.405C108.144 398.295 107.888 397.361 107.233 396.604C106.579 395.834 105.644 395.37 104.428 395.213C103.198 395.054 102.176 395.265 101.362 395.845C100.536 396.41 100.051 397.249 99.9073 398.359C99.762 399.483 100.009 400.43 100.65 401.198C101.291 401.953 102.234 402.411 103.477 402.572C104.707 402.731 105.734 402.527 106.56 401.962C107.375 401.382 107.855 400.529 108 399.405ZM104.05 378.948C104.856 379.052 105.573 379.333 106.199 379.79C106.813 380.246 107.275 380.884 107.586 381.704C107.896 382.523 107.978 383.502 107.831 384.639L107.56 386.742L112.558 387.388L112.12 390.78L98.1954 388.98L98.9056 383.486C99.0491 382.375 99.3622 381.461 99.8448 380.743C100.327 380.026 100.931 379.519 101.655 379.223C102.379 378.927 103.177 378.835 104.05 378.948ZM105.1 384.548C105.184 383.901 105.094 383.398 104.831 383.042C104.568 382.685 104.159 382.471 103.604 382.399C103.048 382.327 102.598 382.43 102.253 382.708C101.908 382.986 101.693 383.449 101.609 384.097L101.371 385.942L104.862 386.393L105.1 384.548ZM111.54 374.672L112.114 370.229L114.732 370.567L113.719 378.402L99.7952 376.602L100.234 373.211L111.54 374.672ZM104.173 364.109L106.989 364.473L107.576 359.931L110.195 360.269L109.608 364.812L112.662 365.206L113.326 360.069L116.044 360.42L114.941 368.949L101.017 367.15L102.119 358.621L104.837 358.972L104.173 364.109Z" fill="white" fill-opacity="0.6"/>
<circle cx="111.809" cy="338.572" r="4" transform="rotate(-82.6354 111.809 338.572)" fill="white" fill-opacity="0.6"/>
<path d="M113.404 306.573C114.211 306.677 114.927 306.958 115.554 307.415C116.167 307.871 116.629 308.509 116.94 309.329C117.251 310.149 117.333 311.127 117.186 312.265L116.914 314.367L121.912 315.013L121.474 318.405L107.55 316.605L108.26 311.111C108.403 310 108.716 309.086 109.199 308.369C109.682 307.651 110.285 307.144 111.009 306.848C111.733 306.552 112.531 306.46 113.404 306.573ZM114.455 312.174C114.538 311.526 114.449 311.024 114.186 310.667C113.923 310.31 113.513 310.096 112.958 310.024C112.403 309.952 111.952 310.056 111.607 310.334C111.262 310.612 111.047 311.075 110.964 311.723L110.725 313.567L114.216 314.018L114.455 312.174ZM121.734 297.042L121.063 302.238L123.415 303.389L122.956 306.94L109.683 300.102L110.19 296.175L124.766 292.936L124.302 296.526L121.734 297.042ZM119.003 297.576L113.683 298.643L118.56 301.007L119.003 297.576ZM125.882 284.302L120.251 286.519L120.146 287.332L125.402 288.011L124.964 291.403L111.04 289.603L111.775 283.911C111.917 282.813 112.23 281.906 112.712 281.188C113.196 280.458 113.801 279.944 114.525 279.648C115.235 279.35 116.001 279.254 116.82 279.36C117.746 279.479 118.538 279.851 119.197 280.474C119.858 281.083 120.274 281.917 120.447 282.974L126.376 280.474L125.882 284.302ZM117.746 287.022L118.018 284.919C118.098 284.298 118.006 283.815 117.741 283.472C117.478 283.115 117.069 282.901 116.513 282.829C115.984 282.761 115.547 282.865 115.202 283.144C114.859 283.408 114.647 283.852 114.566 284.473L114.295 286.576L117.746 287.022ZM114.007 266.647L116.724 266.999L116.247 270.688L127.454 272.136L127.016 275.528L115.809 274.08L115.332 277.769L112.615 277.418L114.007 266.647ZM114.665 261.553L128.589 263.353L128.151 266.745L114.227 264.945L114.665 261.553ZM118.139 256.055L120.955 256.419L121.542 251.877L124.161 252.215L123.573 256.757L126.628 257.152L127.292 252.015L130.009 252.366L128.907 260.895L114.983 259.095L116.085 250.566L118.803 250.918L118.139 256.055ZM131.084 245.144C130.952 246.162 130.669 247.053 130.234 247.817C129.8 248.581 129.227 249.166 128.515 249.571C127.806 249.963 126.993 250.114 126.077 250.022L126.544 246.412C127.067 246.426 127.486 246.299 127.803 246.031C128.107 245.761 128.291 245.381 128.354 244.892C128.419 244.389 128.358 243.978 128.17 243.658C127.97 243.336 127.665 243.149 127.255 243.096C126.911 243.052 126.611 243.134 126.356 243.343C126.102 243.539 125.88 243.799 125.69 244.124C125.502 244.436 125.275 244.89 125.01 245.488C124.616 246.351 124.243 247.049 123.892 247.582C123.541 248.115 123.068 248.551 122.473 248.891C121.878 249.231 121.144 249.344 120.271 249.231C118.975 249.064 118.024 248.464 117.418 247.431C116.799 246.396 116.587 245.125 116.782 243.618C116.98 242.084 117.51 240.895 118.372 240.052C119.22 239.207 120.304 238.837 121.621 238.94L121.147 242.609C120.694 242.577 120.322 242.697 120.032 242.969C119.728 243.239 119.545 243.612 119.484 244.088C119.431 244.498 119.5 244.843 119.693 245.123C119.872 245.402 120.166 245.568 120.576 245.621C121.026 245.679 121.404 245.513 121.709 245.122C122.015 244.731 122.372 244.105 122.779 243.244C123.199 242.384 123.584 241.694 123.934 241.175C124.285 240.642 124.752 240.205 125.333 239.863C125.915 239.522 126.623 239.405 127.456 239.512C128.249 239.615 128.944 239.913 129.539 240.407C130.135 240.887 130.576 241.536 130.86 242.352C131.144 243.169 131.219 244.099 131.084 245.144Z" fill="white" fill-opacity="0.6"/>
<circle cx="127.448" cy="217.579" r="4" transform="rotate(-82.6354 127.448 217.579)" fill="white" fill-opacity="0.6"/>
<path d="M129.043 185.58C129.849 185.684 130.566 185.965 131.192 186.422C131.806 186.878 132.268 187.516 132.579 188.336C132.889 189.156 132.971 190.134 132.824 191.271L132.553 193.374L137.551 194.02L137.113 197.412L123.188 195.612L123.899 190.118C124.042 189.007 124.355 188.093 124.838 187.376C125.32 186.658 125.924 186.151 126.648 185.855C127.372 185.559 128.17 185.467 129.043 185.58ZM130.093 191.181C130.177 190.533 130.087 190.03 129.824 189.674C129.561 189.317 129.152 189.103 128.597 189.031C128.041 188.959 127.591 189.062 127.246 189.34C126.901 189.618 126.686 190.081 126.602 190.729L126.364 192.574L129.855 193.025L130.093 191.181ZM125.219 179.902L133.55 180.979C134.383 181.087 135.05 180.965 135.553 180.613C136.056 180.261 136.358 179.688 136.461 178.895C136.563 178.102 136.417 177.464 136.022 176.983C135.627 176.502 135.013 176.207 134.18 176.1L125.85 175.023L126.288 171.631L134.599 172.705C135.842 172.866 136.859 173.266 137.65 173.906C138.441 174.546 138.997 175.344 139.317 176.3C139.639 177.242 139.729 178.262 139.587 179.36C139.445 180.457 139.106 181.415 138.57 182.233C138.023 183.036 137.287 183.633 136.362 184.025C135.425 184.414 134.334 184.529 133.091 184.368L124.78 183.294L125.219 179.902ZM134.469 161.696C134.745 160.912 135.232 160.316 135.93 159.909C136.615 159.5 137.36 159.348 138.167 159.452C139.331 159.602 140.203 160.132 140.785 161.04C141.355 161.934 141.546 163.108 141.358 164.563L140.52 171.049L126.596 169.249L127.406 162.981C127.589 161.567 128.055 160.504 128.806 159.795C129.558 159.072 130.49 158.782 131.6 158.926C132.42 159.032 133.073 159.338 133.559 159.844C134.046 160.338 134.35 160.955 134.469 161.696ZM132.667 166.586L132.954 164.364C133.026 163.809 132.962 163.37 132.761 163.049C132.55 162.712 132.206 162.513 131.73 162.451C131.253 162.39 130.87 162.495 130.58 162.767C130.291 163.025 130.11 163.432 130.039 163.987L129.752 166.209L132.667 166.586ZM138.544 164.804C138.618 164.236 138.548 163.783 138.336 163.446C138.113 163.095 137.757 162.887 137.267 162.824C136.778 162.761 136.373 162.877 136.053 163.171C135.734 163.453 135.538 163.878 135.465 164.447L135.147 166.906L138.221 167.303L138.544 164.804ZM143 152.954C142.868 153.972 142.585 154.863 142.15 155.627C141.715 156.391 141.142 156.976 140.431 157.381C139.722 157.774 138.909 157.924 137.993 157.833L138.46 154.223C138.982 154.236 139.402 154.109 139.719 153.841C140.023 153.571 140.206 153.191 140.27 152.702C140.335 152.2 140.273 151.788 140.086 151.468C139.886 151.147 139.581 150.959 139.171 150.906C138.827 150.862 138.527 150.944 138.272 151.153C138.018 151.349 137.796 151.609 137.606 151.934C137.418 152.246 137.191 152.701 136.926 153.298C136.532 154.162 136.159 154.86 135.808 155.392C135.457 155.925 134.984 156.361 134.389 156.701C133.793 157.041 133.059 157.154 132.187 157.042C130.891 156.874 129.94 156.274 129.334 155.241C128.715 154.207 128.503 152.936 128.697 151.428C128.896 149.894 129.426 148.706 130.288 147.863C131.136 147.018 132.219 146.647 133.537 146.75L133.063 150.419C132.61 150.388 132.238 150.508 131.947 150.779C131.644 151.049 131.461 151.422 131.399 151.898C131.347 152.308 131.416 152.653 131.609 152.934C131.788 153.212 132.082 153.378 132.492 153.431C132.942 153.489 133.319 153.323 133.625 152.932C133.931 152.542 134.288 151.915 134.695 151.054C135.115 150.194 135.5 149.504 135.85 148.985C136.201 148.452 136.667 148.015 137.249 147.673C137.831 147.332 138.539 147.215 139.372 147.323C140.165 147.425 140.859 147.723 141.454 148.217C142.051 148.697 142.492 149.346 142.776 150.162C143.06 150.979 143.135 151.909 143 152.954Z" fill="white" fill-opacity="0.6"/>
<circle cx="139.368" cy="125.347" r="4" transform="rotate(-82.6354 139.368 125.347)" fill="white" fill-opacity="0.6"/>
<path d="M140.964 93.3463C141.77 93.4506 142.487 93.7314 143.113 94.1888C143.727 94.6446 144.189 95.2824 144.499 96.1023C144.81 96.9223 144.892 97.9008 144.745 99.038L144.473 101.141L149.472 101.787L149.033 105.178L135.109 103.379L135.819 97.8844C135.963 96.7736 136.276 95.8595 136.759 95.1422C137.241 94.4248 137.845 93.9179 138.569 93.6216C139.292 93.3253 140.091 93.2335 140.964 93.3463ZM142.014 98.9472C142.098 98.2993 142.008 97.797 141.745 97.4403C141.482 97.0836 141.073 96.8694 140.517 96.7976C139.962 96.7258 139.512 96.829 139.167 97.107C138.822 97.3851 138.607 97.8481 138.523 98.496L138.285 100.341L141.776 100.792L142.014 98.9472ZM139.865 87.9606L142.681 88.3246L143.269 83.7824L145.887 84.1208L145.3 88.663L148.354 89.0579L149.018 83.9206L151.736 84.2718L150.633 92.8009L136.709 91.0012L137.811 82.4721L140.529 82.8233L139.865 87.9606ZM153.01 75.5025C152.841 76.8116 152.381 77.9757 151.631 78.9946C150.883 80.0003 149.925 80.757 148.756 81.2648C147.577 81.7577 146.306 81.9161 144.944 81.7401C143.582 81.564 142.4 81.0886 141.398 80.3137C140.397 79.5256 139.663 78.5501 139.195 77.3872C138.728 76.211 138.58 74.9684 138.749 73.6593C138.918 72.3501 139.377 71.1927 140.125 70.187C140.875 69.1681 141.833 68.418 142.997 67.9366C144.164 67.4421 145.428 67.2828 146.79 67.4588C148.152 67.6349 149.341 68.1112 150.356 68.8878C151.359 69.6626 152.094 70.6315 152.562 71.7945C153.03 72.9574 153.179 74.1934 153.01 75.5025ZM149.916 75.1026C150.06 73.9918 149.804 73.058 149.149 72.3011C148.495 71.531 147.56 71.0674 146.344 70.9101C145.114 70.7512 144.092 70.9619 143.278 71.5423C142.452 72.1078 141.967 72.9459 141.823 74.0566C141.678 75.1806 141.925 76.1268 142.566 76.8952C143.207 77.6504 144.15 78.1083 145.393 78.2689C146.623 78.4279 147.65 78.2246 148.476 77.6592C149.291 77.0788 149.771 76.2266 149.916 75.1026ZM145.966 54.6448C146.772 54.7491 147.489 55.0299 148.115 55.4873C148.729 55.943 149.191 56.5809 149.502 57.4008C149.812 58.2207 149.894 59.1993 149.747 60.3365L149.476 62.439L154.474 63.0851L154.036 66.4769L140.111 64.6772L140.822 59.1829C140.965 58.0721 141.278 57.158 141.761 56.4406C142.243 55.7233 142.847 55.2164 143.571 54.9201C144.295 54.6238 145.093 54.532 145.966 54.6448ZM147.016 60.2457C147.1 59.5978 147.011 59.0955 146.747 58.7388C146.484 58.3821 146.075 58.1679 145.52 58.0961C144.964 58.0243 144.514 58.1275 144.169 58.4055C143.824 58.6836 143.609 59.1466 143.525 59.7945L143.287 61.6392L146.778 62.0904L147.016 60.2457ZM153.456 50.3692L154.03 45.9261L156.648 46.2645L155.635 54.0993L141.711 52.2997L142.15 48.9079L153.456 50.3692ZM146.089 39.8065L148.905 40.1705L149.492 35.6283L152.111 35.9667L151.524 40.5089L154.578 40.9037L155.242 35.7664L157.96 36.1177L156.857 44.6467L142.933 42.847L144.035 34.318L146.753 34.6692L146.089 39.8065Z" fill="white" fill-opacity="0.6"/>
<circle cx="153.725" cy="14.2703" r="4" transform="rotate(-82.6354 153.725 14.2703)" fill="white" fill-opacity="0.6"/>
<defs>
<linearGradient id="paint0_linear_331_633" x1="69" y1="768" x2="68.9999" y2="-256" gradientUnits="userSpaceOnUse">
<stop stop-color="#6735D3"/>
<stop offset="1" stop-color="#8E58FF" stop-opacity="0"/>
</linearGradient>
<linearGradient id="paint1_linear_331_633" x1="967.301" y1="891.074" x2="19.3008" y2="891.074" gradientUnits="userSpaceOnUse">
<stop stop-color="#C1ABEF"/>
<stop offset="1" stop-color="#712FFF"/>
</linearGradient>
</defs>
</svg>
