<svg width="42" height="40" viewBox="0 0 42 40" fill="none" xmlns="http://www.w3.org/2000/svg">
<path d="M26.0625 2.42188H7.9375C6.55859 2.42188 5.4375 3.54297 5.4375 4.92188V34.9219C5.4375 36.3008 6.55859 37.4219 7.9375 37.4219H26.0625C27.4414 37.4219 28.5625 36.3008 28.5625 34.9219V4.92188C28.5625 3.54297 27.4414 2.42188 26.0625 2.42188ZM25.75 34.6094H8.25V5.23438H25.75V34.6094ZM15.4375 30.625C15.4375 31.0394 15.6021 31.4368 15.8951 31.7299C16.1882 32.0229 16.5856 32.1875 17 32.1875C17.4144 32.1875 17.8118 32.0229 18.1049 31.7299C18.3979 31.4368 18.5625 31.0394 18.5625 30.625C18.5625 30.2106 18.3979 29.8132 18.1049 29.5201C17.8118 29.2271 17.4144 29.0625 17 29.0625C16.5856 29.0625 16.1882 29.2271 15.8951 29.5201C15.6021 29.8132 15.4375 30.2106 15.4375 30.625Z" fill="white"/>
<path d="M40.5761 8.78341C38.8791 8.07159 37.1807 7.80078 35.4832 7.80078C30.0945 7.80034 24.7063 10.5282 19.3176 10.5282C17.9661 10.5282 16.6156 10.3567 15.2641 9.92791C15.1123 9.87978 14.9601 9.85703 14.8113 9.85703C14.0584 9.85703 13.4004 10.4398 13.4004 11.2487V25.1288C13.4004 25.6814 13.7167 26.2051 14.2246 26.4177C15.9217 27.13 17.6201 27.4008 19.3176 27.4008C24.7063 27.4008 30.095 24.673 35.4836 24.673C36.8351 24.673 38.1856 24.8445 39.5371 25.2732C39.6889 25.3213 39.8411 25.3441 39.9899 25.3441C40.7428 25.3441 41.4008 24.7613 41.4008 23.9524V10.0727C41.4004 9.51972 41.0841 8.99647 40.5761 8.78341ZM15.5004 12.1854C16.3806 12.4059 17.2994 12.5166 18.2444 12.5761C17.9871 13.8619 16.8566 14.831 15.5004 14.831V12.1854ZM15.5004 24.6542V22.5638C17.0041 22.5638 18.2208 23.7568 18.2877 25.25C17.302 25.1708 16.3806 24.974 15.5004 24.6542ZM27.4004 21.8008C25.4671 21.8008 23.9004 19.92 23.9004 17.6008C23.9004 15.2812 25.4675 13.4008 27.4004 13.4008C29.3333 13.4008 30.9004 15.2812 30.9004 17.6008C30.9004 19.9208 29.3328 21.8008 27.4004 21.8008ZM39.3004 23.0162C38.5339 22.8241 37.7381 22.7165 36.9239 22.6469C37.1807 21.5059 38.127 20.6397 39.3004 20.4909V23.0162ZM39.3004 12.6863C37.949 12.5153 36.9003 11.387 36.8587 9.99353C37.7136 10.0885 38.5251 10.2661 39.3004 10.5474V12.6863Z" fill="#8741FA"/>
<ellipse cx="27.3334" cy="17.6008" rx="3.6" ry="4.8" fill="white"/>
</svg>
