<svg width="24" height="25" viewBox="0 0 24 25" fill="none" xmlns="http://www.w3.org/2000/svg">
<path d="M15.2364 23.9999C12.9455 23.9999 10.6546 23.9636 8.32732 23.9999C7.01824 24.0363 6.47278 23.4908 6.50915 22.1817C6.54551 18.5454 6.50915 14.909 6.54551 11.309C6.54551 9.5636 7.34551 8.7636 9.12732 8.7636C13.2364 8.72724 17.3455 8.72724 21.4546 8.7636C23.2 8.7636 23.9636 9.59996 23.9636 11.3454C24 14.9818 23.9636 18.6181 24 22.2181C24 23.5636 23.4182 24.0363 22.1455 23.9999C19.8546 23.9636 17.5637 23.9999 15.2364 23.9999ZM21.7455 11.0545C17.3455 11.0545 13.0546 11.0545 8.80005 11.0545C8.80005 11.7454 8.80005 12.3636 8.80005 13.0181C13.1273 13.0181 17.4182 13.0181 21.7455 13.0181C21.7455 12.3272 21.7455 11.7454 21.7455 11.0545Z" fill="#F47EE1"/>
<path d="M2.32727 13.0545C3.01817 13.0909 3.59999 13.1272 4.2909 13.1636C4.2909 13.8545 4.2909 14.5091 4.2909 15.1272C4.03635 15.1636 3.8909 15.2363 3.70908 15.2363C0 15.4545 0 15.4545 0 11.7091C0 8.79998 0 5.89089 0 3.01817C0 0.763635 0.727271 0.0363635 2.87272 0C6.79998 0 10.7272 0 14.6545 0C16.6545 0 17.3818 0.763634 17.4545 2.72727C17.4909 3.92726 17.4545 5.12726 17.4545 6.43635C16.7272 6.43635 16.0727 6.43635 15.3454 6.43635C15.3091 5.81817 15.2363 5.23635 15.2 4.50908C10.9454 4.50908 6.69089 4.50908 2.32727 4.50908C2.32727 7.27271 2.32727 10.0727 2.32727 13.0545Z" fill="#F47EE1"/>
</svg>
