<svg width="24" height="24" viewBox="0 0 24 24" fill="none" xmlns="http://www.w3.org/2000/svg">
<path d="M23.3338 8.37383C19.9591 8.37383 16.6146 8.37383 13.27 8.37383C10.6486 8.37383 8.05733 8.37383 5.43592 8.37383C3.8691 8.37383 3.32673 8.8245 3.59791 10.3568C3.80883 11.5285 4.32106 12.7904 5.10447 13.6317C6.30972 14.9236 8.02719 14.5931 9.47349 13.1509C12.0045 10.6272 12.0045 10.6272 14.4451 13.0909C16.5543 15.224 19.1757 14.5931 20.17 11.7388C20.2604 11.4684 20.3508 11.168 20.4714 10.8375C21.6163 10.8375 22.7613 10.8375 23.8762 10.8375C24.8404 16.516 20.0495 22.6451 13.8124 23.8169C7.78615 24.9586 1.48873 20.6321 0.253356 14.4729C-1.07241 8.04333 2.93503 1.70388 9.23244 0.291776C15.4395 -1.09028 21.9478 2.57518 23.3338 8.37383ZM17.639 16.2155C14.9574 16.4258 12.6373 16.5761 10.3172 16.8465C10.046 16.8765 9.65428 17.4173 9.65428 17.7178C9.71454 19.5805 11.2211 20.7222 13.029 20.2716C15.1683 19.7608 16.4338 18.2285 17.639 16.2155Z" fill="#A263F1"/>
</svg>
