<svg width="32" height="32" viewBox="0 0 32 32" fill="none" xmlns="http://www.w3.org/2000/svg">
<path d="M29.2228 11.7695C25.2857 11.7695 21.3837 11.7695 17.4817 11.7695C14.4234 11.7695 11.4002 11.7695 8.3419 11.7695C6.51394 11.7695 5.88119 12.2952 6.19757 14.0829C6.44364 15.45 7.04124 16.9221 7.95522 17.9036C9.36134 19.4109 11.3651 19.0253 13.0524 17.3428C16.0053 14.3984 16.0053 14.3984 18.8527 17.2727C21.3134 19.7614 24.3717 19.0253 25.5317 15.6953C25.6372 15.3798 25.7426 15.0293 25.8833 14.6437C27.2191 14.6437 28.5549 14.6437 29.8555 14.6437C30.9804 21.2686 25.3911 28.4193 18.1144 29.7863C11.0838 31.1183 3.73686 26.0708 2.29558 18.8851C0.74885 11.3839 5.4242 3.98786 12.7712 2.34041C20.0127 0.728002 27.6058 5.00438 29.2228 11.7695ZM22.5789 20.9181C19.4503 21.1635 16.7435 21.3387 14.0367 21.6542C13.7203 21.6893 13.2633 22.3202 13.2633 22.6707C13.3336 24.844 15.0913 26.1759 17.2005 25.6502C19.6963 25.0543 21.1728 23.2666 22.5789 20.9181Z" fill="#0E7DE4"/>
</svg>
